<svg width="24" height="24" viewBox="0 0 24 24" fill="none" xmlns="http://www.w3.org/2000/svg">
<g clip-path="url(#clip0_3377_3024)">
<path fill-rule="evenodd" clip-rule="evenodd" d="M24 12C24 18.6274 18.6274 24 12 24C5.37259 24 0 18.6274 0 12C0 5.37259 5.37259 0 12 0C18.6274 0 24 5.37259 24 12ZM9.39947 10.5245C9.39947 12.1295 8.09829 13.4307 6.49322 13.4307C4.88812 13.4307 3.58697 12.1295 3.58697 10.5245C3.58697 8.91938 4.88812 7.6182 6.49322 7.6182C8.09829 7.6182 9.39947 8.91938 9.39947 10.5245ZM10.5245 20.4131C12.1295 20.4131 13.4307 19.1119 13.4307 17.5068C13.4307 15.9017 12.1295 14.6005 10.5245 14.6005C8.91938 14.6005 7.61822 15.9017 7.61822 17.5068C7.61822 19.1119 8.91938 20.4131 10.5245 20.4131ZM16.3818 6.4932C16.3818 8.09828 15.0806 9.39945 13.4755 9.39945C11.8705 9.39945 10.5693 8.09828 10.5693 6.4932C10.5693 4.88813 11.8705 3.58695 13.4755 3.58695C15.0806 3.58695 16.3818 4.88813 16.3818 6.4932ZM17.5068 16.3818C19.1119 16.3818 20.4131 15.0806 20.4131 13.4755C20.4131 11.8705 19.1119 10.5693 17.5068 10.5693C15.9017 10.5693 14.6005 11.8705 14.6005 13.4755C14.6005 15.0806 15.9017 16.3818 17.5068 16.3818Z" fill="#EF5525"/>
</g>
<defs>
<clipPath id="clip0_3377_3024">
<rect width="24" height="24" fill="white"/>
</clipPath>
</defs>
</svg>
